<svg xmlns="http://www.w3.org/2000/svg" version="1.1" xmlnsXlink="http://www.w3.org/1999/xlink" xmlnsSvgjs="http://svgjs.dev/svgjs" width="1000" height="633" viewBox="0 0 1000 633"><g transform="matrix(1,0,0,1,0.4002223078738325,0.2562753036436902)"><svg viewBox="0 0 390 247" data-background-color="#ffffff" preserveAspectRatio="xMidYMid meet" height="633" width="1000" xmlns="http://www.w3.org/2000/svg" xmlnsXlink="http://www.w3.org/1999/xlink"><defs></defs><g id="tight-bounds" transform="matrix(1,0,0,1,-0.1560867000708015,-0.09999999999999432)"><svg viewBox="0 0 390.3121734001416 247.2" height="247.2" width="390.3121734001416"><g><svg viewBox="0 0 395.52 250.49832073714285" height="247.2" width="390.3121734001416"><g><svg viewBox="0 0 395.52 250.49832073714285" height="250.49832073714285" width="395.52"><g><svg viewBox="0 0 395.52 250.49832073714285" height="250.49832073714285" width="395.52"><g><rect width="395.52" height="172.85371714285714" fill="none" stroke-width="9.018103199999999" stroke="#151313" data-fill-palette-color="none" data-stroke-palette-color="tertiary"></rect><rect width="395.52" height="77.64460359428571" y="172.85371714285714" fill="#151313" data-fill-palette-color="tertiary"></rect></g><g><svg viewBox="0 0 395.52 172.85371714285714" height="172.85371714285714" width="395.52"><g transform="matrix(1,0,0,1,23.607599999999998,23.607599999999998)"><svg width="348.3048" viewBox="0 -29.5 125.98999786376953 45.45000076293945" height="125.63851714285714" data-palette-color="#151313"><path d="M1.5 0L0 0 0-29.5 1.5-29.5 1.5 0ZM7.5 0L3 0 3-29.5 7.5-29.5 7.5 0ZM10.5 0L9 0 9-29.5 10.5-29.5 10.5 0ZM18 0L16.5 0 16.5-29.5 18-29.5 18 0ZM24 0L19.5 0 19.5-29.5 24-29.5 24 0ZM9 15.95L9 4.35 12.3 4.35Q14.2 4.35 15.15 5.1L15.15 5.1Q16.15 5.85 16.15 7.2L16.15 7.2Q16.15 8.05 15.7 8.75L15.7 8.75Q15.2 9.45 14.4 9.75L14.4 9.75Q15.4 10.1 16 10.9L16 10.9Q16.6 11.75 16.6 12.7L16.6 12.7Q16.6 14.2 15.5 15.1L15.5 15.1Q14.45 15.95 12.25 15.95L12.25 15.95 9 15.95ZM10.25 9.15L12.1 9.15Q14.85 9.15 14.85 7.3L14.85 7.3Q14.85 6.5 14.2 6L14.2 6Q13.6 5.45 12.3 5.45L12.3 5.45 10.25 5.45 10.25 9.15ZM10.25 14.8L12.5 14.8Q15.2 14.8 15.2 12.6L15.2 12.6Q15.2 10.25 12.15 10.25L12.15 10.25 10.25 10.25 10.25 14.8ZM30 0L25.5 0 25.5-29.5 30-29.5 30 0ZM33 0L31.5 0 31.5-29.5 33-29.5 33 0ZM36 0L34.5 0 34.5-29.5 36-29.5 36 0ZM42 0L37.5 0 37.5-29.5 42-29.5 42 0ZM49.5 0L48 0 48-29.5 49.5-29.5 49.5 0ZM34.65 15.95L34.65 4.35 38.05 4.35Q40.05 4.35 40.95 5.25L40.95 5.25Q41.9 6.1 41.9 7.7L41.9 7.7Q41.9 8.7 41.25 9.6L41.25 9.6Q40.6 10.5 39.55 10.8L39.55 10.8 42.25 15.95 40.8 15.95 38.2 10.85 35.95 10.85 35.95 15.95 34.65 15.95ZM35.95 9.7L38.2 9.7Q39.4 9.7 40 9.15L40 9.15Q40.55 8.65 40.55 7.7L40.55 7.7Q40.55 6.75 40 6.15L40 6.15Q39.4 5.6 38.2 5.6L38.2 5.6 35.95 5.6 35.95 9.7ZM55.5 0L51 0 51-29.5 55.5-29.5 55.5 0ZM58.5 0L57 0 57-29.5 58.5-29.5 58.5 0ZM64.5 0L60 0 60-29.5 64.5-29.5 64.5 0ZM72 0L70.5 0 70.5-29.5 72-29.5 72 0ZM75 0L73.5 0 73.5-29.5 75-29.5 75 0ZM60.2 15.95L60.2 4.35 67.3 4.35 67.3 5.5 61.4 5.5 61.4 9.3 66.3 9.3 66.3 10.5 61.4 10.5 61.4 14.8 67.25 14.8 67.25 15.95 60.2 15.95ZM77.99 0L76.49 0 76.49-29.5 77.99-29.5 77.99 0ZM80.99 0L79.49 0 79.49-29.5 80.99-29.5 80.99 0ZM86.99 0L82.49 0 82.49-29.5 86.99-29.5 86.99 0ZM92.99 0L88.49 0 88.49-29.5 92.99-29.5 92.99 0ZM100.49 0L98.99 0 98.99-29.5 100.49-29.5 100.49 0ZM88.44 15.95L88.44 5.5 85.19 5.5 85.19 4.35 93.19 4.35 93.19 5.5 89.79 5.5 89.79 15.95 88.44 15.95ZM103.49 0L101.99 0 101.99-29.5 103.49-29.5 103.49 0ZM106.49 0L104.99 0 104.99-29.5 106.49-29.5 106.49 0ZM112.49 0L107.99 0 107.99-29.5 112.49-29.5 112.49 0ZM118.49 0L113.99 0 113.99-29.5 118.49-29.5 118.49 0ZM125.99 0L124.49 0 124.49-29.5 125.99-29.5 125.99 0ZM113.94 15.95L113.94 5.5 110.69 5.5 110.69 4.35 118.69 4.35 118.69 5.5 115.29 5.5 115.29 15.95 113.94 15.95Z" opacity="1" transform="matrix(1,0,0,1,0,0)" fill="#151313" class="undefined-text-0" data-fill-palette-color="primary" id="text-0"></path></svg></g></svg></g></svg></g></svg></g><g></g></svg></g></svg><rect width="390.3121734001416" height="247.2" fill="none" stroke="none" visibility="hidden"></rect></g></svg></g></svg>