<svg xmlns="http://www.w3.org/2000/svg" version="1.1" xmlnsXlink="http://www.w3.org/1999/xlink" xmlnsSvgjs="http://svgjs.dev/svgjs" width="1000" height="361" viewBox="0 0 1000 361"><g transform="matrix(1,0,0,1,-0.606060361270977,0.26294667526997273)"><svg viewBox="0 0 396 143" data-background-color="#89939e" preserveAspectRatio="xMidYMid meet" height="361" width="1000" xmlns="http://www.w3.org/2000/svg" xmlnsXlink="http://www.w3.org/1999/xlink"><defs></defs><g id="tight-bounds" transform="matrix(1,0,0,1,0.24000009693679658,-0.1041589323091614)"><svg viewBox="0 0 395.52 143.20831786461835" height="143.20831786461835" width="395.52"><g><svg viewBox="0 0 668.3321440486322 241.9870603864746" height="143.20831786461835" width="395.52"><g transform="matrix(1,0,0,1,0,25.744859316159634)"><svg viewBox="0 0 395.52 190.49734175415534" height="190.49734175415534" width="395.52"><g><svg viewBox="0 0 395.52 190.49734175415534" height="190.49734175415534" width="395.52"><g><svg viewBox="0 0 395.52 120.21884498480242" height="120.21884498480242" width="395.52"><g transform="matrix(1,0,0,1,0,0)"><svg width="395.52" viewBox="3.9000000953674316 -35 115.13999938964844 35" height="120.21884498480242" data-palette-color="#ffffff"><path d="M3.9 0L3.9-35 14.95-35Q18.95-35 21.35-32.95 23.75-30.9 23.75-26.85L23.75-26.85Q23.75-24.95 22.8-23 21.85-21.05 19.75-20L19.75-20 19.7-19.9 19.7-19.85Q22.2-18.85 23.88-16.55 25.55-14.25 25.55-10.45L25.55-10.45Q25.55-6.15 23.23-3.08 20.9 0 15.4 0L15.4 0 3.9 0ZM16.1-20.65Q18.55-20.65 20.3-22.25 22.05-23.85 22.1-26.5L22.1-26.5Q22.25-30 20.28-31.73 18.3-33.45 14.55-33.45L14.55-33.45 5.5-33.45 5.5-20.65 16.1-20.65ZM15.3-1.55Q19.4-1.55 21.65-3.8 23.9-6.05 23.9-10.65L23.9-10.65Q23.9-14.4 21.65-16.73 19.4-19.05 15.7-19.05L15.7-19.05 5.5-19.05 5.5-1.55 15.3-1.55ZM51.35 0L45.5-13.55Q44.75-13.4 44-13.4L44-13.4 32.95-13.4 32.95 0 31.3 0 31.3-35 43.35-35Q48.25-35 50.62-32.1 53-29.2 53-24.3L53-24.3Q53-21.05 51.75-18.1 50.5-15.15 47.05-13.95L47.05-13.95 53.05 0 51.35 0ZM43.5-15Q47.85-15 49.6-17.78 51.35-20.55 51.35-24.3L51.35-24.3Q51.35-28.7 49.3-31.05 47.25-33.4 43.4-33.4L43.4-33.4 32.95-33.4 32.95-15 43.5-15ZM59.5 0L59.5-35 76.2-35 76.2-33.45 61.1-33.45 61.1-20.65 71.84-20.65 71.3-19.05 61.1-19.05 61.1-1.5 76.09-1.5 76.09 0 59.5 0ZM87.99 0L87.94-33.45 78.84-33.45 78.84-35 98.94-35 98.94-33.45 89.54-33.45 89.54 0 87.99 0ZM108.09 0L108.04-33.45 98.94-33.45 98.94-35 119.04-35 119.04-33.45 109.64-33.45 109.64 0 108.09 0Z" opacity="1" transform="matrix(1,0,0,1,0,0)" fill="#ffffff" class="undefined-text-0" data-fill-palette-color="primary" id="text-0"></path></svg></g></svg></g><g transform="matrix(1,0,0,1,163.310208,148.59962903343464)"><svg viewBox="0 0 232.209792 41.89771272072072" height="41.89771272072072" width="232.209792"><g transform="matrix(1,0,0,1,0,0)"><svg width="232.209792" viewBox="2.549999952316284 -35.400001525878906 199.77999877929688 36.05000305175781" height="41.89771272072072" data-palette-color="#ffffff"><path d="M13.75 0.65Q8.2 0.65 5.38-1.43 2.55-3.5 2.55-6.75L2.55-6.75Q2.55-9.65 5.35-9.65L5.35-9.65Q5.9-9.65 6.25-9.6L6.25-9.6Q6-8.85 6.1-7.5L6.1-7.5Q6.25-4.6 8.38-2.9 10.5-1.2 14.15-1.2L14.15-1.2Q17.45-1.2 19.43-2.75 21.4-4.3 21.4-7.3L21.4-7.3Q21.4-9.25 20.53-10.65 19.65-12.05 18.03-13.25 16.4-14.45 13.4-16.1L13.4-16.1Q10-18 8.05-19.43 6.1-20.85 4.95-22.7 3.8-24.55 3.8-27.1L3.8-27.1Q3.8-31.2 6.8-33.25 9.8-35.3 14.4-35.3L14.4-35.3Q18.9-35.3 21.63-33.65 24.35-32 24.35-29.1L24.35-29.1Q24.35-27 22.35-26.8L22.35-26.8Q21.95-26.7 21.7-26.7L21.7-26.7Q21.4-26.7 20.8-26.8L20.8-26.8Q20.95-27.35 20.95-27.8L20.95-27.8Q20.95-28.4 20.8-28.9L20.8-28.9Q20.6-31.05 18.75-32.25 16.9-33.45 14-33.45L14-33.45Q11.35-33.45 9.47-32.25 7.6-31.05 7.6-28.35L7.6-28.35Q7.6-26.45 8.55-25.03 9.5-23.6 11.1-22.5 12.7-21.4 15.65-19.75L15.65-19.75Q18.8-18.05 20.85-16.55 22.9-15.05 24.15-13.05 25.4-11.05 25.4-8.4L25.4-8.4Q25.4-6 24.23-3.95 23.05-1.9 20.45-0.63 17.85 0.65 13.75 0.65L13.75 0.65ZM38.55-25.35Q39.35-25.35 40.67-25.4 42-25.45 42.8-25.5L42.8-25.5 42.75-24.4Q42.7-23.9 42.4-23.58 42.1-23.25 41.65-23.25L41.65-23.25 36.5-23.25 36.5-21.35 36.5-5.25Q36.5-3.95 37.1-3.25 37.7-2.55 38.9-2.55L38.9-2.55Q39.65-2.55 40.32-2.83 41-3.1 41.25-3.6L41.25-3.6Q41.8-2.85 41.8-2L41.8-2Q41.8-0.85 40.6-0.15 39.4 0.55 37.55 0.55L37.55 0.55Q35.2 0.55 33.85-0.93 32.5-2.4 32.5-5L32.5-5 32.5-23.25 31.8-23.25Q29.75-23.25 28.8-23.1L28.8-23.1 28.85-24.25Q28.9-25.35 29.95-25.35L29.95-25.35 32.5-25.35 32.5-29.8Q32.5-30.85 33.15-31.43 33.8-32 34.85-32L34.85-32Q36.1-32 37.15-31.1L37.15-31.1Q36.6-29.4 36.55-25.35L36.55-25.35 38.55-25.35ZM71.15-3.65Q71.69-2.9 71.69-2.1L71.69-2.1Q71.69-1 70.67-0.25 69.65 0.5 68.19 0.5L68.19 0.5Q66.05 0.5 64.94-1 63.84-2.5 63.84-5.7L63.84-5.7 63.84-7.15Q62.2-3.6 59.37-1.53 56.55 0.55 53.2 0.55L53.2 0.55Q50.3 0.55 48.62-1.03 46.95-2.6 46.95-5.25L46.95-5.25Q46.95-8.2 49.2-10.25 51.45-12.3 55.25-13.35L55.25-13.35Q58.59-14.25 62.2-14.25L62.2-14.25Q63.2-14.25 63.64-14.2L63.64-14.2 63.64-15.5Q63.64-19.95 62.17-22.1 60.7-24.25 57.3-24.25L57.3-24.25Q55.09-24.25 53.59-23.3 52.09-22.35 52.09-20.2L52.09-20.2Q52.09-19.05 52.62-18.05 53.15-17.05 54.25-16.65L54.25-16.65Q53.45-15.65 51.84-15.65L51.84-15.65Q50.2-15.65 49.15-16.98 48.09-18.3 48.09-20.05L48.09-20.05Q48.09-22.95 50.65-24.5 53.2-26.05 57.65-26.05L57.65-26.05Q62.8-26.05 65.25-23.4 67.69-20.75 67.69-15.25L67.69-15.25 67.69-5.25Q67.69-2.6 69.5-2.6L69.5-2.6Q69.9-2.6 70.4-2.88 70.9-3.15 71.15-3.65L71.15-3.65ZM54.8-2.25Q56.8-2.25 58.87-3.73 60.95-5.2 62.32-7.6 63.7-10 63.75-12.6L63.75-12.6 62.59-12.65Q60.84-12.65 59.05-12.38 57.25-12.1 56-11.6L56-11.6Q53.8-10.8 52.55-9.4 51.3-8 51.3-6.1L51.3-6.1Q51.3-4.45 52.15-3.35 53-2.25 54.8-2.25L54.8-2.25ZM82.99-25.35Q83.79-25.35 85.12-25.4 86.44-25.45 87.24-25.5L87.24-25.5 87.19-24.4Q87.14-23.9 86.84-23.58 86.54-23.25 86.09-23.25L86.09-23.25 80.94-23.25 80.94-21.35 80.94-5.25Q80.94-3.95 81.54-3.25 82.14-2.55 83.34-2.55L83.34-2.55Q84.09-2.55 84.77-2.83 85.44-3.1 85.69-3.6L85.69-3.6Q86.24-2.85 86.24-2L86.24-2Q86.24-0.85 85.04-0.15 83.84 0.55 81.99 0.55L81.99 0.55Q79.64 0.55 78.29-0.93 76.94-2.4 76.94-5L76.94-5 76.94-23.25 76.24-23.25Q74.19-23.25 73.24-23.1L73.24-23.1 73.29-24.25Q73.34-25.35 74.39-25.35L74.39-25.35 76.94-25.35 76.94-29.8Q76.94-30.85 77.59-31.43 78.24-32 79.29-32L79.29-32Q80.54-32 81.59-31.1L81.59-31.1Q81.04-29.4 80.99-25.35L80.99-25.35 82.99-25.35ZM95.49-30Q94.39-30 93.59-30.8 92.79-31.6 92.79-32.7L92.79-32.7Q92.79-33.85 93.59-34.63 94.39-35.4 95.49-35.4L95.49-35.4Q96.64-35.4 97.42-34.63 98.19-33.85 98.19-32.7L98.19-32.7Q98.19-31.6 97.42-30.8 96.64-30 95.49-30L95.49-30ZM97.69-5.7Q97.69-2.05 98.34-0.35L98.34-0.35Q97.29 0.55 96.04 0.55L96.04 0.55Q95.04 0.55 94.42-0.05 93.79-0.65 93.79-1.65L93.79-1.65 93.74-19.8Q93.74-23.25 93.09-25.15L93.09-25.15Q94.14-26.05 95.39-26.05L95.39-26.05Q96.39-26.05 97.02-25.48 97.64-24.9 97.64-23.85L97.64-23.85 97.69-5.7ZM113.34 0.65Q108.69 0.65 106.36-1.03 104.04-2.7 104.04-5.4L104.04-5.4Q104.04-6.65 104.64-7.43 105.24-8.2 106.54-8.2L106.54-8.2Q107.04-8.2 107.34-8.15L107.34-8.15Q107.19-7.55 107.19-6.95L107.19-6.95Q107.19-6.4 107.24-6.05L107.24-6.05Q107.34-3.85 109.06-2.55 110.79-1.25 113.69-1.25L113.69-1.25Q116.54-1.25 118.24-2.25 119.94-3.25 119.94-5.2L119.94-5.2Q119.94-7 118.64-8.05 117.34-9.1 114.54-10.35L114.54-10.35 112.94-11.1Q110.14-12.4 108.66-13.3 107.19-14.2 106.11-15.75 105.04-17.3 105.04-19.65L105.04-19.65Q105.04-22.9 107.59-24.5 110.14-26.1 114.04-26.1L114.04-26.1Q118.14-26.1 120.44-24.78 122.74-23.45 122.74-21.1L122.74-21.1Q122.74-19 120.89-18.8L120.89-18.8Q120.39-18.7 120.24-18.7L120.24-18.7Q119.94-18.7 119.44-18.8L119.44-18.8Q119.54-19.4 119.54-19.8L119.54-19.8Q119.54-20.45 119.39-20.9L119.39-20.9Q119.19-22.55 117.76-23.4 116.34-24.25 113.89-24.25L113.89-24.25Q111.64-24.25 110.19-23.43 108.74-22.6 108.74-20.8L108.74-20.8Q108.74-19.3 109.59-18.23 110.44-17.15 111.61-16.48 112.79-15.8 115.19-14.65L115.19-14.65 116.29-14.15Q118.74-13 120.21-12.13 121.69-11.25 122.71-9.85 123.74-8.45 123.74-6.5L123.74-6.5Q123.74-3.55 121.29-1.45 118.84 0.65 113.34 0.65L113.34 0.65ZM136.34-25.35Q137.14-25.35 138.46-25.4 139.79-25.45 140.59-25.5L140.59-25.5 140.54-24.4Q140.49-23.9 140.19-23.58 139.89-23.25 139.44-23.25L139.44-23.25 134.29-23.25 134.29-21.35 134.29-5.25Q134.29-3.95 134.89-3.25 135.49-2.55 136.69-2.55L136.69-2.55Q137.44-2.55 138.11-2.83 138.79-3.1 139.04-3.6L139.04-3.6Q139.59-2.85 139.59-2L139.59-2Q139.59-0.85 138.39-0.15 137.19 0.55 135.34 0.55L135.34 0.55Q132.99 0.55 131.64-0.93 130.29-2.4 130.29-5L130.29-5 130.29-23.25 129.59-23.25Q127.54-23.25 126.59-23.1L126.59-23.1 126.64-24.25Q126.69-25.35 127.74-25.35L127.74-25.35 130.29-25.35 130.29-29.8Q130.29-30.85 130.94-31.43 131.59-32 132.64-32L132.64-32Q133.89-32 134.94-31.1L134.94-31.1Q134.39-29.4 134.34-25.35L134.34-25.35 136.34-25.35ZM148.83-30Q147.73-30 146.93-30.8 146.13-31.6 146.13-32.7L146.13-32.7Q146.13-33.85 146.93-34.63 147.73-35.4 148.83-35.4L148.83-35.4Q149.98-35.4 150.76-34.63 151.53-33.85 151.53-32.7L151.53-32.7Q151.53-31.6 150.76-30.8 149.98-30 148.83-30L148.83-30ZM151.03-5.7Q151.03-2.05 151.68-0.35L151.68-0.35Q150.63 0.55 149.38 0.55L149.38 0.55Q148.38 0.55 147.76-0.05 147.13-0.65 147.13-1.65L147.13-1.65 147.08-19.8Q147.08-23.25 146.43-25.15L146.43-25.15Q147.48-26.05 148.73-26.05L148.73-26.05Q149.73-26.05 150.36-25.48 150.98-24.9 150.98-23.85L150.98-23.85 151.03-5.7ZM169.28 0.65Q163.78 0.65 160.73-2.75 157.68-6.15 157.68-12.55L157.68-12.55Q157.68-18.85 160.81-22.45 163.93-26.05 169.63-26.05L169.63-26.05Q173.68-26.05 175.91-24.3 178.13-22.55 178.13-19.7L178.13-19.7Q178.13-17.95 177.21-16.9 176.28-15.85 174.83-15.85L174.83-15.85Q173.18-15.85 172.48-16.8L172.48-16.8Q174.13-17.45 174.13-20L174.13-20Q174.13-22.15 172.76-23.23 171.38-24.3 169.28-24.3L169.28-24.3Q165.93-24.3 163.93-21.4 161.93-18.5 161.93-13.15L161.93-13.15Q161.93-7.4 164.23-4.75 166.53-2.1 170.33-2.1L170.33-2.1Q173.08-2.1 175.08-3.45 177.08-4.8 177.68-7.35L177.68-7.35Q178.43-7.1 178.43-6.1L178.43-6.1Q178.43-5.45 178.18-4.75L178.18-4.75Q177.38-2.15 175.01-0.75 172.63 0.65 169.28 0.65L169.28 0.65ZM191.93 0.65Q187.28 0.65 184.95-1.03 182.63-2.7 182.63-5.4L182.63-5.4Q182.63-6.65 183.23-7.43 183.83-8.2 185.13-8.2L185.13-8.2Q185.63-8.2 185.93-8.15L185.93-8.15Q185.78-7.55 185.78-6.95L185.78-6.95Q185.78-6.4 185.83-6.05L185.83-6.05Q185.93-3.85 187.65-2.55 189.38-1.25 192.28-1.25L192.28-1.25Q195.13-1.25 196.83-2.25 198.53-3.25 198.53-5.2L198.53-5.2Q198.53-7 197.23-8.05 195.93-9.1 193.13-10.35L193.13-10.35 191.53-11.1Q188.73-12.4 187.25-13.3 185.78-14.2 184.7-15.75 183.63-17.3 183.63-19.65L183.63-19.65Q183.63-22.9 186.18-24.5 188.73-26.1 192.63-26.1L192.63-26.1Q196.73-26.1 199.03-24.78 201.33-23.45 201.33-21.1L201.33-21.1Q201.33-19 199.48-18.8L199.48-18.8Q198.98-18.7 198.83-18.7L198.83-18.7Q198.53-18.7 198.03-18.8L198.03-18.8Q198.13-19.4 198.13-19.8L198.13-19.8Q198.13-20.45 197.98-20.9L197.98-20.9Q197.78-22.55 196.35-23.4 194.93-24.25 192.48-24.25L192.48-24.25Q190.23-24.25 188.78-23.43 187.33-22.6 187.33-20.8L187.33-20.8Q187.33-19.3 188.18-18.23 189.03-17.15 190.2-16.48 191.38-15.8 193.78-14.65L193.78-14.65 194.88-14.15Q197.33-13 198.8-12.13 200.28-11.25 201.3-9.85 202.33-8.45 202.33-6.5L202.33-6.5Q202.33-3.55 199.88-1.45 197.43 0.65 191.93 0.65L191.93 0.65Z" opacity="1" transform="matrix(1,0,0,1,0,0)" fill="#ffffff" class="undefined-text-1" data-fill-palette-color="secondary" id="text-1"></path></svg></g></svg></g></svg></g></svg></g><g transform="matrix(1,0,0,1,423.9007840486322,0)"><svg viewBox="0 0 244.43135999999998 241.9870603864746" height="241.9870603864746" width="244.43135999999998"><g><svg xmlns="http://www.w3.org/2000/svg" xmlnsXlink="http://www.w3.org/1999/xlink" version="1.1" x="0" y="0" viewBox="10 10.199999809265137 80 79.20000457763672" enable-background="new 0 0 100 100" xml:space="preserve" height="241.9870603864746" width="244.43135999999998" class="icon-icon-0" data-fill-palette-color="accent" id="icon-0"><g fill="#ffffff" data-fill-palette-color="accent"><polygon points="90,80.5 18.9,80.5 18.9,10.2 16.2,10.2 16.2,20 10,20 10,22.6 16.2,22.6 16.2,46.6 10,46.6 10,49.3 16.2,49.3    16.2,73.3 10,73.3 10,76 16.2,76 16.2,83.2 24.7,83.2 24.7,89.4 27.3,89.4 27.3,83.2 51.3,83.2 51.3,89.4 54,89.4 54,83.2 78,83.2    78,89.4 80.7,89.4 80.7,83.2 90,83.2  " fill="#ffffff" data-fill-palette-color="accent"></polygon><polygon points="41.9,54.1 50.3,63 63.6,37.2 72.5,39.8 86.2,20.2 84,18.6 71.5,36.7 62.2,34 49.7,58.4 41.7,50 23.4,73.8    25.5,75.4  " fill="#ffffff" data-fill-palette-color="accent"></polygon></g></svg></g></svg></g></svg></g></svg><rect width="395.52" height="143.20831786461835" fill="none" stroke="none" visibility="hidden"></rect></g></svg></g></svg>